<svg width="68" height="22" viewBox="0 0 68 22" fill="none" xmlns="http://www.w3.org/2000/svg">
<path d="M19.0349 3.35867C19.3028 3.51462 19.5987 3.59059 19.9226 3.59059C20.2465 3.59059 20.5464 3.51462 20.8143 3.35867C21.0822 3.20273 21.2941 2.99081 21.45 2.72291C21.606 2.45501 21.6819 2.15912 21.6819 1.83124C21.6819 1.50336 21.606 1.20747 21.45 0.943573C21.2941 0.675672 21.0822 0.467749 20.8143 0.315806C20.5464 0.163862 20.2505 0.0878906 19.9226 0.0878906C19.5947 0.0878906 19.2988 0.163862 19.0349 0.315806C18.767 0.467749 18.5551 0.675672 18.3992 0.943573C18.2432 1.21147 18.1672 1.50736 18.1672 1.83124C18.1672 2.15512 18.2432 2.45501 18.3992 2.72291C18.5551 2.99081 18.767 3.20273 19.0349 3.35867Z" fill="#F42424"/>
<path d="M20.8899 5.26172H16.0637V7.55287H18.6108V14.8382H16.0637V17.1293H23.1611V14.8382H20.8899V5.26172Z" fill="#F42424"/>
<path d="M36.0873 6.30551L35.3636 4.23828C34.8678 4.41022 34.404 4.60614 33.9801 4.83406C33.5523 5.06198 33.0765 5.35787 32.5526 5.72973C31.7649 5.29389 30.8693 5.07397 29.8616 5.07397C28.97 5.07397 28.1703 5.24991 27.4585 5.60177C26.7468 5.95364 26.187 6.44546 25.7792 7.08122C25.3713 7.71699 25.1674 8.44072 25.1674 9.25642C25.1674 9.79222 25.2554 10.292 25.4353 10.7599C25.6152 11.2277 25.8671 11.6475 26.191 12.0154C25.5992 12.5952 25.2993 13.2229 25.2993 13.9067C25.2993 14.2466 25.3673 14.5824 25.5033 14.9063C25.6392 15.2342 25.8391 15.5341 26.099 15.806C25.6232 16.0939 25.2354 16.4897 24.9355 16.9895C24.6356 17.4894 24.4836 18.0212 24.4836 18.5849C24.4836 19.2727 24.7036 19.8765 25.1474 20.3923C25.5912 20.9081 26.223 21.3039 27.0547 21.5838C27.8864 21.8637 28.874 21.9997 30.0256 21.9997C31.2931 21.9997 32.3727 21.8237 33.2604 21.4719C34.1521 21.12 34.8158 20.6482 35.2556 20.0524C35.6955 19.4606 35.9194 18.8049 35.9194 18.0851C35.9194 17.4694 35.7595 16.9296 35.4396 16.4617C35.1197 15.9939 34.6719 15.634 34.0921 15.3821C33.5123 15.1302 32.8445 15.0023 32.0808 15.0023H29.5538C28.1303 15.0023 27.4186 14.5984 27.4186 13.7907C27.4186 13.5388 27.5105 13.3069 27.6985 13.103C28.3662 13.4069 29.1059 13.5588 29.9216 13.5588C30.8133 13.5588 31.617 13.3749 32.3367 13.003C33.0565 12.6312 33.6202 12.1234 34.0281 11.4716C34.4359 10.8238 34.6399 10.0961 34.6399 9.2964C34.6399 8.41273 34.4 7.63302 33.9161 6.94927C34.316 6.76534 34.6639 6.62539 34.9558 6.53343C35.2476 6.44146 35.6235 6.36549 36.0833 6.30551H36.0873ZM27.5225 16.6937C28.0863 16.8936 28.7181 16.9935 29.4258 16.9935H31.493C32.7686 16.9935 33.4043 17.3614 33.4043 18.0931C33.4043 18.6329 33.1004 19.0568 32.4967 19.3567C31.8929 19.6566 31.0972 19.8085 30.1096 19.8085C29.1219 19.8085 28.3262 19.6725 27.7024 19.4006C27.0747 19.1287 26.7628 18.6969 26.7628 18.1051C26.7628 17.8292 26.8308 17.5693 26.9667 17.3254C27.1027 17.0815 27.2866 16.8696 27.5185 16.6897L27.5225 16.6937ZM31.9089 10.492C31.705 10.8278 31.4291 11.0917 31.0812 11.2837C30.7333 11.4716 30.3455 11.5676 29.9256 11.5676C29.5058 11.5676 29.1019 11.4716 28.7461 11.2797C28.3902 11.0877 28.1103 10.8198 27.9024 10.484C27.6944 10.1481 27.5905 9.76823 27.5905 9.35638C27.5905 8.94453 27.6905 8.54868 27.8984 8.20481C28.1023 7.86094 28.3822 7.58904 28.7381 7.39311C29.0939 7.19718 29.4858 7.09722 29.9176 7.09722C30.3495 7.09722 30.7173 7.18519 31.0692 7.35712C31.4211 7.53306 31.701 7.78896 31.9089 8.12484C32.1168 8.46071 32.2208 8.86456 32.2208 9.33239C32.2208 9.76823 32.1208 10.1561 31.9169 10.496L31.9089 10.492Z" fill="#F42424"/>
<path d="M46.7678 14.4269C46.6639 14.175 46.6119 13.8192 46.6119 13.3593V9.44478C46.6119 8.60109 46.4559 7.84937 46.1441 7.19362C45.8322 6.53786 45.3444 6.01805 44.6806 5.63819C44.0168 5.25434 43.1772 5.06641 42.1615 5.06641C41.3898 5.06641 40.5981 5.17037 39.7864 5.37829C38.9747 5.58621 38.275 5.86211 37.6912 6.21398L38.5909 8.36118C39.0347 8.05729 39.5705 7.80539 40.1983 7.60946C40.826 7.41353 41.4138 7.31357 41.9616 7.31357C43.4011 7.31357 44.1208 8.0413 44.1208 9.49276V9.9246H41.9616C40.886 9.9246 39.9744 10.0885 39.2266 10.4124C38.4789 10.7363 37.9111 11.1881 37.5313 11.7639C37.1514 12.3397 36.9595 12.9875 36.9595 13.7152C36.9595 14.4429 37.1234 15.0427 37.4553 15.5905C37.7872 16.1383 38.243 16.5581 38.8348 16.858C39.4266 17.1579 40.0943 17.3099 40.842 17.3099C41.6337 17.3099 42.3615 17.1499 43.0172 16.826C43.673 16.5022 44.1648 16.0943 44.4927 15.5985C44.6046 15.9264 44.8166 16.2303 45.1324 16.5142C45.4483 16.798 45.8162 17.022 46.24 17.1779L46.6079 17.3099L47.5435 15.0427L47.2996 14.9547C47.0557 14.8588 46.8798 14.6828 46.7758 14.4309L46.7678 14.4269ZM44.2328 12.8795C44.2328 13.3553 44.0888 13.7712 43.8049 14.131C43.521 14.4909 43.1572 14.7668 42.7213 14.9547C42.2855 15.1427 41.8417 15.2386 41.3978 15.2386C40.842 15.2386 40.3822 15.0907 40.0223 14.7988C39.6625 14.5069 39.4825 14.115 39.4825 13.6272C39.4825 12.9915 39.7624 12.5116 40.3182 12.1998C40.874 11.8879 41.5498 11.7279 42.3415 11.7279H44.2328V12.8835V12.8795Z" fill="#F42424"/>
<path d="M53.4423 0H48.884V2.29115H51.1632V14.8385H48.884V17.1296H55.7255V14.8385H53.4423V0Z" fill="#F42424"/>
<path d="M67.6603 14.9507C67.4164 14.8548 67.2404 14.6788 67.1365 14.4269C67.0325 14.175 66.9805 13.8192 66.9805 13.3593V9.44478C66.9805 8.60109 66.8246 7.84937 66.5127 7.19362C66.2008 6.53786 65.713 6.01805 65.0493 5.63819C64.3855 5.25434 63.5458 5.06641 62.5302 5.06641C61.7585 5.06641 60.9668 5.17037 60.1551 5.37829C59.3434 5.58621 58.6436 5.86211 58.0599 6.21398L58.9595 8.36118C59.4034 8.05729 59.9392 7.80539 60.5669 7.60946C61.1947 7.41353 61.7825 7.31357 62.3303 7.31357C63.7697 7.31357 64.4895 8.0413 64.4895 9.49276V9.9246H62.3303C61.2547 9.9246 60.343 10.0885 59.5953 10.4124C58.8476 10.7363 58.2798 11.1881 57.8999 11.7639C57.5201 12.3397 57.3281 12.9875 57.3281 13.7152C57.3281 14.4429 57.4921 15.0427 57.8239 15.5905C58.1558 16.1383 58.6116 16.5581 59.2034 16.858C59.7952 17.1579 60.463 17.3099 61.2107 17.3099C62.0024 17.3099 62.7301 17.1499 63.3859 16.826C64.0416 16.5022 64.5335 16.0943 64.8613 15.5985C64.9733 15.9264 65.1852 16.2303 65.5011 16.5142C65.817 16.798 66.1848 17.022 66.6087 17.1779L66.9765 17.3099L67.9122 15.0427L67.6683 14.9547L67.6603 14.9507ZM64.6014 12.8835C64.6014 13.3593 64.4575 13.7752 64.1736 14.135C63.8897 14.4949 63.5258 14.7708 63.09 14.9587C62.6541 15.1467 62.2103 15.2426 61.7665 15.2426C61.2107 15.2426 60.7509 15.0947 60.391 14.8028C60.0311 14.5109 59.8512 14.119 59.8512 13.6312C59.8512 12.9955 60.1311 12.5156 60.6869 12.2038C61.2427 11.8919 61.9184 11.7319 62.7101 11.7319H64.6014V12.8875V12.8835Z" fill="#F42424"/>
<path d="M11.5766 11.0719H11.4606V13.351H11.5766C12.0324 13.351 12.4043 13.7229 12.4043 14.1787C12.4043 14.4506 12.2923 14.6825 12.0924 14.8345C11.8045 15.0504 11.3687 15.0904 10.8688 14.9464C10.0012 14.6945 9.25744 14.0348 8.47373 13.331C7.98591 12.8952 7.4701 12.4354 6.88632 12.0395V0H1.97615V2.27915H4.60317V11.0639C4.42723 11.0319 4.2473 11.0079 4.05937 10.9919C4.00339 10.9879 3.94741 10.9839 3.89543 10.9799C3.84745 10.9799 3.79947 10.9719 3.74749 10.9719C3.74749 10.9719 3.72749 10.9719 3.7155 10.9719H3.67951C1.94816 10.9919 0.544678 12.4034 0.544678 14.1387C0.544678 15.8741 1.96815 17.3096 3.7155 17.3096C5.20295 17.3096 6.45448 16.274 6.79036 14.8865C6.84634 14.9344 6.89832 14.9824 6.9543 15.0304C7.85396 15.8301 8.86958 16.7418 10.2371 17.1336C10.6369 17.2496 11.0368 17.3056 11.4206 17.3056C12.1804 17.3056 12.8921 17.0856 13.4639 16.6538C14.2396 16.07 14.6834 15.1664 14.6834 14.1787C14.6834 12.4674 13.2919 11.0719 11.5766 11.0719ZM3.7155 15.0264C3.22368 15.0264 2.82383 14.6266 2.82383 14.1347C2.82383 13.6429 3.20369 13.2671 3.67951 13.2471H3.69151C3.76748 13.2471 3.83545 13.2631 3.90743 13.2711C4.30728 13.359 4.60317 13.7149 4.60317 14.1347C4.60317 14.6266 4.20732 15.0264 3.7155 15.0264Z" fill="#F42424"/>
</svg>
